<?xml version="1.0" encoding="utf-8" ?>
<svg baseProfile="full" height="120" version="1.1" width="400" xmlns="http://www.w3.org/2000/svg" xmlns:ev="http://www.w3.org/2001/xml-events" xmlns:xlink="http://www.w3.org/1999/xlink"><defs /><g transform="translate(0.0,18.288770053475936) scale(2.1390374331550803)"><path d="M 94,6 93,7 91,7 90,8 89,8 88,9 87,9 87,10 85,12 85,16 89,20 91,20 92,21 94,21 95,22 97,22 98,23 98,27 97,28 88,28 85,31 86,32 88,32 89,33 101,33 102,32 104,32 105,31 106,31 108,29 108,28 109,27 109,23 105,19 104,19 103,18 100,18 99,17 96,17 95,16 95,12 96,11 103,11 106,8 106,7 103,7 102,6 Z" fill="#122B55" /><path d="M 47,14 47,15 46,16 46,23 47,24 47,25 48,26 48,27 50,29 51,29 52,30 53,30 54,31 55,31 56,32 58,32 59,33 71,33 72,32 74,32 75,31 71,27 70,28 62,28 61,27 60,27 55,22 55,17 60,12 61,12 62,11 68,11 69,12 70,12 74,8 73,7 70,7 69,6 61,6 60,7 57,7 56,8 54,8 53,9 52,9 Z" fill="#122B55" /><path d="M 4,6 4,33 13,33 13,13 15,11 21,11 22,12 24,12 25,13 26,13 27,14 27,15 28,16 28,33 37,33 37,14 36,13 36,12 33,9 32,9 31,8 30,8 29,7 24,7 23,6 Z" fill="#122B55" /><path d="M 186,6 183,6 182,5 172,5 152,25 152,27 153,28 153,29 154,30 154,31 157,34 183,8 183,7 184,6 Z" fill="#00A9E5" /><path d="M 144,5 117,32 117,33 118,34 129,34 149,14 149,13 148,12 148,11 147,10 147,9 146,8 146,7 Z" fill="#00A9E5" /></g></svg>